<svg width="168" height="28" viewBox="0 0 168 28" fill="none" xmlns="http://www.w3.org/2000/svg">
<path d="M17.8565 1.064V21H13.5725V12.628H4.33255V21H0.0485469V1.064H4.33255V9.128H13.5725V1.064H17.8565ZM35.3289 14.252H25.9769C26.0515 15.5773 26.3969 16.548 27.0129 17.164C27.6289 17.7613 28.5435 18.06 29.7569 18.06C30.4849 18.06 31.2129 17.9387 31.9409 17.696C32.6689 17.4533 33.3409 17.0987 33.9569 16.632L35.0769 19.488C34.4049 20.0293 33.5649 20.4587 32.5569 20.776C31.5675 21.0747 30.5689 21.224 29.5609 21.224C27.1715 21.224 25.2955 20.5707 23.9329 19.264C22.5702 17.9387 21.8889 16.1373 21.8889 13.86C21.8889 12.4227 22.1782 11.144 22.7569 10.024C23.3542 8.88533 24.1849 8.008 25.2489 7.392C26.3129 6.75733 27.5169 6.44 28.8609 6.44C30.8582 6.44 32.4355 7.09333 33.5929 8.4C34.7502 9.688 35.3289 11.4333 35.3289 13.636V14.252ZM28.9729 9.408C28.1702 9.408 27.5169 9.64133 27.0129 10.108C26.5275 10.5747 26.2102 11.256 26.0609 12.152H31.6889C31.4649 10.3227 30.5595 9.408 28.9729 9.408ZM38.9834 0.391998H43.2114V21H38.9834V0.391998ZM56.347 6.44C57.5603 6.44 58.643 6.75733 59.595 7.392C60.547 8.008 61.2843 8.88533 61.807 10.024C62.3483 11.1627 62.619 12.46 62.619 13.916C62.619 15.372 62.3577 16.66 61.835 17.78C61.3123 18.8813 60.575 19.7307 59.623 20.328C58.671 20.9253 57.579 21.224 56.347 21.224C55.3577 21.224 54.471 21.0187 53.687 20.608C52.903 20.1973 52.3057 19.628 51.895 18.9V27.048H47.667V10.864C47.667 9.352 47.5923 7.99867 47.443 6.804H51.419L51.699 9.156C52.0723 8.316 52.6697 7.65333 53.491 7.168C54.331 6.68267 55.283 6.44 56.347 6.44ZM55.143 18.004C56.1883 18.004 56.991 17.6587 57.551 16.968C58.111 16.2587 58.391 15.2413 58.391 13.916C58.391 12.5907 58.1017 11.5547 57.523 10.808C56.963 10.0613 56.1697 9.688 55.143 9.688C54.0977 9.688 53.2857 10.052 52.707 10.78C52.147 11.4893 51.867 12.516 51.867 13.86C51.867 15.204 52.147 16.2307 52.707 16.94C53.2857 17.6493 54.0977 18.004 55.143 18.004Z" fill="#0093D5"/>
<path d="M84.838 21.252C82.822 21.252 81.058 20.832 79.546 19.992C78.0527 19.1333 76.9047 17.9387 76.102 16.408C75.2994 14.8587 74.898 13.0573 74.898 11.004C74.898 8.96933 75.2994 7.18667 76.102 5.656C76.9047 4.10667 78.0527 2.912 79.546 2.072C81.058 1.232 82.822 0.812 84.838 0.812C86.1634 0.812 87.4234 1.01733 88.618 1.428C89.8314 1.82 90.8207 2.38 91.586 3.108L90.214 6.244C89.318 5.572 88.4407 5.08667 87.582 4.788C86.742 4.47067 85.8554 4.312 84.922 4.312C83.13 4.312 81.758 4.88133 80.806 6.02C79.854 7.15867 79.378 8.82 79.378 11.004C79.378 13.2067 79.854 14.8867 80.806 16.044C81.758 17.1827 83.13 17.752 84.922 17.752C85.8554 17.752 86.742 17.6027 87.582 17.304C88.4407 16.9867 89.318 16.492 90.214 15.82L91.586 18.956C90.8207 19.684 89.8314 20.2533 88.618 20.664C87.4234 21.056 86.1634 21.252 84.838 21.252ZM107.841 14.252H98.4886C98.5632 15.5773 98.9086 16.548 99.5246 17.164C100.141 17.7613 101.055 18.06 102.269 18.06C102.997 18.06 103.725 17.9387 104.453 17.696C105.181 17.4533 105.853 17.0987 106.469 16.632L107.589 19.488C106.917 20.0293 106.077 20.4587 105.069 20.776C104.079 21.0747 103.081 21.224 102.073 21.224C99.6832 21.224 97.8072 20.5707 96.4446 19.264C95.0819 17.9387 94.4006 16.1373 94.4006 13.86C94.4006 12.4227 94.6899 11.144 95.2686 10.024C95.8659 8.88533 96.6966 8.008 97.7606 7.392C98.8246 6.75733 100.029 6.44 101.373 6.44C103.37 6.44 104.947 7.09333 106.105 8.4C107.262 9.688 107.841 11.4333 107.841 13.636V14.252ZM101.485 9.408C100.682 9.408 100.029 9.64133 99.5246 10.108C99.0392 10.5747 98.7219 11.256 98.5726 12.152H104.201C103.977 10.3227 103.071 9.408 101.485 9.408ZM120.259 6.44C123.619 6.44 125.299 8.428 125.299 12.404V21H121.071V12.6C121.071 11.6107 120.884 10.892 120.511 10.444C120.156 9.97733 119.587 9.744 118.803 9.744C117.87 9.744 117.123 10.0427 116.563 10.64C116.003 11.2373 115.723 12.04 115.723 13.048V21H111.495V10.864C111.495 9.352 111.42 7.99867 111.271 6.804H115.247L115.527 9.044C116.031 8.204 116.684 7.56 117.487 7.112C118.308 6.664 119.232 6.44 120.259 6.44ZM134.987 9.968V15.484C134.987 16.268 135.192 16.8467 135.603 17.22C136.014 17.5747 136.546 17.752 137.199 17.752C137.61 17.752 138.076 17.6867 138.599 17.556V20.832C137.927 21.0933 137.115 21.224 136.163 21.224C134.408 21.224 133.064 20.7293 132.131 19.74C131.216 18.7507 130.759 17.36 130.759 15.568V9.968H128.071V6.804H130.759V3.472L134.987 2.1V6.804H138.599V9.968H134.987ZM154.509 14.252H145.157C145.231 15.5773 145.577 16.548 146.193 17.164C146.809 17.7613 147.723 18.06 148.937 18.06C149.665 18.06 150.393 17.9387 151.121 17.696C151.849 17.4533 152.521 17.0987 153.137 16.632L154.257 19.488C153.585 20.0293 152.745 20.4587 151.737 20.776C150.747 21.0747 149.749 21.224 148.741 21.224C146.351 21.224 144.475 20.5707 143.113 19.264C141.75 17.9387 141.069 16.1373 141.069 13.86C141.069 12.4227 141.358 11.144 141.937 10.024C142.534 8.88533 143.365 8.008 144.429 7.392C145.493 6.75733 146.697 6.44 148.041 6.44C150.038 6.44 151.615 7.09333 152.773 8.4C153.93 9.688 154.509 11.4333 154.509 13.636V14.252ZM148.153 9.408C147.35 9.408 146.697 9.64133 146.193 10.108C145.707 10.5747 145.39 11.256 145.241 12.152H150.869C150.645 10.3227 149.739 9.408 148.153 9.408ZM166.423 6.468C167.02 6.468 167.524 6.56133 167.935 6.748L167.907 10.612C167.216 10.2947 166.526 10.136 165.835 10.136C164.715 10.136 163.856 10.444 163.259 11.06C162.68 11.6573 162.391 12.4973 162.391 13.58V21H158.163V10.864C158.163 9.352 158.088 7.99867 157.939 6.804H161.915L162.195 9.24C162.55 8.344 163.1 7.66267 163.847 7.196C164.612 6.71067 165.471 6.468 166.423 6.468Z" fill="#74798C"/>
</svg>
