<svg width="251" height="160" viewBox="0 0 251 160" fill="none" xmlns="http://www.w3.org/2000/svg">
<path fill-rule="evenodd" clip-rule="evenodd" d="M136.843 14.3234C136.843 14.13 136.693 13.9732 136.508 13.9732C136.323 13.9732 136.173 14.13 136.173 14.3234V15.1464H135.386C135.201 15.1464 135.052 15.3032 135.052 15.4967C135.052 15.6901 135.201 15.8469 135.386 15.8469H136.173V16.6699C136.173 16.8633 136.323 17.0201 136.508 17.0201C136.693 17.0201 136.843 16.8633 136.843 16.6699V15.8469H137.629C137.814 15.8469 137.964 15.6901 137.964 15.4967C137.964 15.3032 137.814 15.1464 137.629 15.1464H136.843V14.3234Z" fill="#9FB2D9"/>
<path fill-rule="evenodd" clip-rule="evenodd" d="M52.2892 111.744H30.3358C18.4842 111.779 8.88499 121.821 8.85083 134.22C8.88499 146.619 18.4842 156.661 30.3358 156.697H215.981C235.113 156.697 250.769 140.318 250.769 120.302C250.769 100.287 235.113 83.9081 215.981 83.9081C207.867 83.8829 201.296 77.0084 201.272 68.5206C201.296 60.0327 207.867 53.1582 215.981 53.133H233.682C242.121 53.1078 248.954 45.9567 248.977 37.1292C248.952 28.3046 242.121 21.1565 233.686 21.1292H211.297C208.014 21.1187 205.354 18.3365 205.344 14.9014C205.354 11.4663 208.014 8.68417 211.297 8.67366H215.245C217.511 8.66525 219.345 6.74502 219.351 4.3751C219.345 2.00369 217.508 0.0828455 215.242 0.0765357H189.348C183.896 0.0765357 183.289 6.81721 169.513 6.81721H137.574C134.618 6.82771 132.224 9.3322 132.214 12.4249C132.222 15.519 134.617 18.0258 137.574 18.0363H142.722C147.007 18.0511 150.476 21.6807 150.49 26.1627C150.476 30.6446 147.007 34.2743 142.722 34.289H127.223C106.298 34.289 103.342 40.0115 99.6755 51.3875C96.0093 62.7636 76.9904 63.6823 76.9904 63.6823H50.95C44.4911 63.7012 39.2597 69.1741 39.2416 75.9311C39.2597 82.6881 44.4911 88.161 50.95 88.1799H52.2892C58.5016 88.1988 63.5332 93.4626 63.5513 99.9617C63.5332 106.461 58.5016 111.725 52.2892 111.744ZM226.774 8.67367C225.112 8.67676 223.611 7.63142 222.973 6.0254C222.335 4.41939 222.685 2.56924 223.859 1.33827C225.034 0.107304 226.802 -0.261868 228.338 0.403017C229.874 1.0679 230.876 2.6358 230.876 4.3751C230.876 6.74615 229.041 8.66944 226.774 8.67367Z" fill="#E1E8F6"/>
<path fill-rule="evenodd" clip-rule="evenodd" d="M198.133 74.6411C200.357 71.2651 205.019 65.6536 213.935 60.0651C228.037 51.2268 238.717 39.5139 234.023 32.5818C229.416 25.7799 208.776 38.9167 191.616 71.755C193.697 72.9292 195.879 73.8955 198.133 74.6411Z" fill="#B4C5E6"/>
<path fill-rule="evenodd" clip-rule="evenodd" d="M195.385 71.6402C196.325 71.6084 197.265 71.7377 198.166 72.023C198.227 72.0421 198.294 72.0255 198.34 71.9794C198.387 71.9333 198.406 71.8647 198.391 71.7995C198.376 71.7343 198.329 71.6823 198.268 71.6632C197.402 71.3895 196.502 71.2489 195.597 71.2459C195.902 70.7049 196.207 70.1716 196.512 69.6459C197.134 69.6459 199.143 69.5885 199.896 69.6459C199.997 69.6512 200.083 69.5698 200.088 69.4641C200.093 69.3584 200.016 69.2684 199.915 69.2632C199.223 69.2249 197.522 69.2632 196.731 69.2632C197.302 68.2832 197.874 67.3301 198.447 66.4038C199.965 66.4371 201.479 66.5572 202.984 66.7636C203.05 66.7725 203.115 66.7443 203.155 66.6895C203.195 66.6347 203.204 66.5618 203.178 66.4981C203.153 66.4344 203.097 66.3897 203.032 66.3809C201.586 66.1838 200.132 66.065 198.674 66.0249C199.252 65.0935 199.829 64.1888 200.405 63.311C202.572 63.3579 204.735 63.5292 206.885 63.8239C206.95 63.8328 207.015 63.8045 207.055 63.7498C207.095 63.695 207.104 63.622 207.079 63.5584C207.054 63.4947 206.998 63.45 206.932 63.4411C204.848 63.1558 202.751 62.9858 200.65 62.9321C201.409 61.7837 202.165 60.6801 202.918 59.621C203.782 59.5828 207.36 59.4871 210.05 60.3866C210.141 60.4096 210.233 60.3552 210.262 60.2618C210.291 60.1685 210.246 60.0677 210.159 60.0306C207.653 59.1885 204.404 59.1962 203.208 59.2344C204.134 57.9407 205.053 56.7132 205.963 55.5521C207.141 55.621 211.879 55.9962 214.096 57.6383C214.177 57.6872 214.28 57.6635 214.333 57.5837C214.387 57.5038 214.373 57.3945 214.301 57.3321C212.15 55.7397 207.77 55.2995 206.252 55.1923C207.227 53.9675 208.184 52.8115 209.12 51.7244C211.828 52.3802 214.457 53.3508 216.958 54.6182C217.015 54.6568 217.089 54.6578 217.147 54.6206C217.206 54.5835 217.239 54.5148 217.233 54.4435C217.227 54.3723 217.183 54.3108 217.119 54.2852C214.652 53.0339 212.062 52.0686 209.395 51.4067C209.953 50.7687 210.507 50.1525 211.056 49.5579C214.16 50.3037 217.169 51.4318 220.02 52.9187C220.108 52.9599 220.212 52.9206 220.254 52.8298C220.297 52.7389 220.263 52.6293 220.177 52.5818C217.367 51.1237 214.407 50.0027 211.356 49.2402C212.658 47.8469 213.926 46.571 215.157 45.4124C216.197 45.7722 221.469 47.6402 224.239 49.4813C224.321 49.5269 224.423 49.4992 224.473 49.4175C224.524 49.3357 224.506 49.2271 224.433 49.1675C221.729 47.4641 216.837 45.6765 215.439 45.1675C216.156 44.5065 216.858 43.8839 217.543 43.2995C220.555 44.3819 223.467 45.7476 226.244 47.3799C226.299 47.4134 226.368 47.4134 226.423 47.3798C226.479 47.3462 226.513 47.2842 226.513 47.2171C226.513 47.15 226.479 47.088 226.423 47.0545C223.692 45.4482 220.831 44.0982 217.872 43.0201C219.479 41.6689 220.99 40.5282 222.38 39.5751C223.262 39.7933 227.243 40.8344 230.228 42.6373C230.314 42.6891 230.424 42.6583 230.474 42.5684C230.523 42.4786 230.494 42.3637 230.408 42.312C227.66 40.6469 224.1 39.6325 222.79 39.2804C223.366 38.8899 223.919 38.5301 224.451 38.201C226.779 38.5063 229.061 39.1198 231.242 40.0268C231.303 40.0591 231.376 40.0522 231.431 40.0092C231.485 39.9661 231.512 39.8942 231.499 39.824C231.486 39.7537 231.436 39.6973 231.37 39.6785C229.307 38.8318 227.159 38.2334 224.967 37.8947C229.259 35.3033 231.919 34.645 231.944 34.6373C232.037 34.6127 232.11 34.5382 232.137 34.4418C232.163 34.3454 232.137 34.2418 232.071 34.17C232.004 34.0982 231.906 34.0692 231.813 34.0938C230.707 34.4113 229.629 34.8249 228.589 35.3301C229.064 34.663 229.585 34.0335 230.148 33.4469C230.22 33.3882 230.239 33.2821 230.191 33.2005C230.143 33.119 230.044 33.0883 229.961 33.1292C229.639 33.3359 228.329 35.0737 227.879 35.6746C227.053 36.0804 226.116 36.578 225.077 37.2057L226.844 33.5273C226.877 33.4374 226.84 33.3361 226.758 33.2927C226.675 33.2493 226.575 33.2778 226.526 33.3588L224.513 37.5426C223.8 37.9789 223.05 38.4689 222.248 39.0124L224.155 34.6526C224.183 34.5916 224.177 34.5196 224.14 34.4641C224.103 34.4087 224.04 34.3785 223.976 34.385C223.911 34.3915 223.855 34.4338 223.829 34.4957L221.681 39.4067C220.492 40.245 219.226 41.2057 217.891 42.3158L219.544 37.799C219.58 37.7018 219.533 37.593 219.44 37.556C219.347 37.519 219.243 37.5678 219.208 37.6651L217.338 42.7789C216.731 43.2957 216.109 43.8392 215.476 44.4172L216.877 40.3445C216.904 40.2802 216.895 40.2055 216.853 40.1508C216.811 40.096 216.743 40.0706 216.677 40.0848C216.611 40.099 216.559 40.1505 216.541 40.2182L214.92 44.9301C213.746 46.0223 212.536 47.223 211.29 48.5321L212.344 44.555C212.36 44.46 212.304 44.3679 212.215 44.3422C212.126 44.3165 212.033 44.3655 212 44.4555L210.752 49.0832C210.264 49.614 209.768 50.1627 209.263 50.7292L209.856 47.6938C209.869 47.6254 209.846 47.5549 209.796 47.5089C209.746 47.4629 209.676 47.4483 209.613 47.4706C209.55 47.493 209.503 47.5488 209.49 47.6172L208.78 51.2612C207.848 52.3305 206.904 53.466 205.948 54.6679L206.501 51.2842C206.511 51.2158 206.486 51.1468 206.434 51.1031C206.383 51.0595 206.313 51.0478 206.251 51.0725C206.19 51.0972 206.145 51.1546 206.135 51.223L205.48 55.2459C204.643 56.3151 203.8 57.438 202.951 58.6143L203.317 55.6096C203.325 55.5412 203.298 55.4736 203.245 55.4323C203.192 55.391 203.122 55.3823 203.062 55.4094C203.001 55.4364 202.959 55.4953 202.951 55.5636L202.516 59.223C201.784 60.2641 201.04 61.3474 200.284 62.4727V59.7588C200.284 59.6531 200.202 59.5675 200.101 59.5675C200 59.5675 199.918 59.6531 199.918 59.7588L199.896 63.0239C199.357 63.8456 198.816 64.6915 198.272 65.5617L197.994 63.2651C197.981 63.1594 197.89 63.084 197.789 63.0966C197.688 63.1093 197.616 63.2053 197.628 63.311L197.957 66.067C197.469 66.8734 196.97 67.7002 196.461 68.5474L196.201 67.0545C196.189 66.9862 196.143 66.9295 196.081 66.906C196.018 66.8825 195.949 66.8956 195.898 66.9405C195.847 66.9853 195.823 67.0551 195.835 67.1234L196.164 69.0373C195.793 69.6753 195.421 70.3247 195.048 70.9856L194.455 69.7608C194.406 69.6798 194.306 69.6512 194.224 69.6946C194.142 69.738 194.104 69.8394 194.137 69.9292L194.832 71.3722C194.527 71.9132 194.224 72.4632 193.921 73.022L194.415 73.2555C194.769 72.6966 195.092 72.1582 195.385 71.6402Z" fill="white"/>
<path fill-rule="evenodd" clip-rule="evenodd" d="M195.579 76.555C197.961 74.978 202.165 72.8689 208.513 71.9196C219.288 70.3119 228.904 65.6918 228.176 59.5292C227.477 53.5885 212.216 55.8851 193.189 71.9847L195.564 76.5359L195.579 76.555Z" fill="#9FB2D9"/>
<path fill-rule="evenodd" clip-rule="evenodd" d="M225.271 60.444C225.473 60.444 225.636 60.2726 225.636 60.0612C225.636 59.8498 225.473 59.6785 225.271 59.6785C224.178 59.7033 223.088 59.7992 222.007 59.9655L223.763 58.7253C223.838 58.6751 223.881 58.5863 223.875 58.4934C223.87 58.4005 223.817 58.3181 223.736 58.278C223.656 58.238 223.561 58.2466 223.489 58.3005L220.876 60.1454C219.921 60.31 218.835 60.5282 217.634 60.8306L219.464 58.9856C219.565 58.8873 219.571 58.722 219.477 58.6162C219.383 58.5105 219.225 58.5046 219.124 58.6029L216.65 61.0756C215.406 61.4162 214.056 61.8411 212.625 62.3617L214.17 60.6966C214.264 60.5909 214.26 60.4247 214.159 60.3253C214.058 60.226 213.899 60.2311 213.804 60.3368L211.572 62.7751C210.079 63.3607 208.506 64.0612 206.877 64.8918L208.184 63.1349C208.267 63.0229 208.249 62.8609 208.141 62.7732C208.034 62.6855 207.88 62.7052 207.796 62.8172L205.857 65.4277C204.331 66.2469 202.765 67.1847 201.173 68.2564L201.707 67.0622C201.745 66.9788 201.736 66.8809 201.686 66.8054C201.636 66.73 201.551 66.6884 201.463 66.6963C201.375 66.7043 201.298 66.7606 201.261 66.844L200.386 68.7962C199.167 69.6383 197.947 70.5595 196.728 71.5598L197.218 70.3464C197.27 70.2153 197.211 70.0645 197.086 70.0096C196.961 69.9546 196.817 70.0163 196.764 70.1474L195.923 72.2373C195.327 72.7477 194.732 73.2746 194.137 73.8182L194.503 74.5148C195.098 73.9636 195.693 73.4341 196.289 72.9263C196.9 72.9684 198.356 73.0985 198.97 73.4354C199.091 73.502 199.24 73.454 199.303 73.3282C199.367 73.2024 199.321 73.0465 199.201 72.9799C198.659 72.6813 197.591 72.532 196.848 72.4593C197.319 72.0663 197.79 71.6836 198.261 71.311C199.318 71.474 200.344 71.8058 201.305 72.2947C201.381 72.3398 201.475 72.3389 201.551 72.2921C201.626 72.2454 201.672 72.1601 201.671 72.0682C201.67 71.9764 201.623 71.892 201.546 71.8469C200.68 71.3901 199.754 71.0677 198.799 70.8899C199.774 70.1499 200.737 69.4609 201.685 68.8229C202.505 69.1789 205.103 70.3311 206.12 71.2076C206.222 71.2707 206.353 71.2481 206.43 71.1539C206.508 71.0598 206.51 70.9212 206.435 70.8249C205.48 70.0019 203.251 68.9684 202.194 68.5014C203.218 67.8328 204.23 67.2178 205.227 66.6564C206.047 66.9856 208.714 68.1186 210.474 69.5732C210.543 69.6299 210.636 69.6437 210.718 69.6093C210.8 69.5749 210.857 69.4976 210.87 69.4065C210.882 69.3153 210.847 69.2242 210.778 69.1674C209.193 67.8545 206.903 66.8057 205.794 66.3349C206.282 66.0644 206.77 65.8092 207.258 65.5694C209.539 66.3374 211.696 67.46 213.657 68.8995C213.767 68.983 213.921 68.9573 214.001 68.8421C214.081 68.7269 214.056 68.5658 213.946 68.4823C212.088 67.1093 210.054 66.0154 207.905 65.2325C209.543 64.4261 211.218 63.7081 212.925 63.0813C213.866 63.6899 217.51 66.0861 219.102 67.6746C219.167 67.7382 219.26 67.7605 219.345 67.7331C219.431 67.7057 219.495 67.6327 219.515 67.5417C219.535 67.4507 219.507 67.3554 219.442 67.2918C217.978 65.8258 214.817 63.7052 213.526 62.8593C214.711 62.4421 215.834 62.0938 216.881 61.8143C217.726 62.4918 220.851 64.9914 221.571 65.6421C221.674 65.7173 221.814 65.6999 221.896 65.6017C221.979 65.5035 221.978 65.3559 221.893 65.2593C221.231 64.6622 218.6 62.5607 217.503 61.6574C218.875 61.3052 220.104 61.0526 221.162 60.8918C221.923 61.5808 223.748 63.2497 224.177 63.6976C224.278 63.8033 224.441 63.8033 224.542 63.6976C224.644 63.5919 224.644 63.4205 224.542 63.3148C224.177 62.932 222.687 61.5655 221.82 60.7732C222.962 60.5852 224.115 60.4753 225.271 60.444Z" fill="#B4C5E6"/>
<path fill-rule="evenodd" clip-rule="evenodd" d="M141.676 81.9636C141.52 79.718 141.447 77.5374 141.456 75.422C141.466 73.3065 141.555 71.2344 141.724 69.2057C142.36 61.7416 144.094 55.2995 146.678 49.799C149.319 44.1381 153.091 39.1361 157.738 35.1311C161.908 31.5764 166.621 28.7826 171.679 26.8669C177.202 24.7742 182.978 23.5025 188.839 23.089C190.833 22.9358 192.842 22.8708 194.854 22.8899C196.867 22.9091 198.927 23.0162 200.946 23.2038C201.403 23.2464 201.742 23.6671 201.704 24.1454V24.2067C201.623 25.0296 199.805 42.6641 191.594 58.599C183.274 74.7177 168.448 89.1024 142.331 82.7674C141.968 82.6805 141.705 82.3521 141.687 81.9636H141.676ZM200.782 24.5856C197.125 26.1452 193.572 27.9611 190.149 30.021C192.344 30.4306 197.331 31.399 199.571 32.1454C200.302 28.4019 200.668 25.6574 200.785 24.5818L200.782 24.5856ZM199.41 32.9684C196.826 32.0842 190.083 30.8555 189.081 30.6717C186.278 32.3713 183.117 34.4497 179.761 36.9378L197.251 41.7492C198.184 38.5301 198.89 35.5368 199.421 32.9646L199.41 32.9684ZM197.009 42.5378L178.913 37.5617C175.544 40.1067 172.302 42.8318 169.202 45.7263C172.791 46.8746 189.951 52.3751 192.857 53.91C194.475 50.2175 195.862 46.4187 197.009 42.5378ZM192.52 54.6602C189.593 53.0947 170.651 47.0545 168.51 46.3732C165.865 48.8842 163.205 51.6402 160.589 54.6526L187.547 63.6555C187.58 63.6668 187.61 63.6822 187.639 63.7014C188.799 61.8985 189.86 60.0421 190.83 58.1588C191.427 57.0003 191.991 55.8341 192.52 54.6602ZM187.167 64.421L159.992 55.3454C157.958 57.7263 155.968 60.2641 154.014 62.9626C158.404 64.5167 180.903 71.8392 180.969 71.8622C181.029 71.8812 181.085 71.9154 181.13 71.9617C183.366 69.6535 185.387 67.1286 187.167 64.421ZM180.511 72.5856C178.13 71.8201 157.073 64.9301 153.512 63.6669C151.849 66.0197 150.238 68.495 148.679 71.0928C153.995 73.8373 171.862 78.6909 171.917 78.7062C172.019 78.7334 172.108 78.8022 172.162 78.8976C175.203 77.1923 178.012 75.0695 180.515 72.5856H180.511ZM171.236 79.3837C168.371 78.5952 153.088 74.3311 148.244 71.8009C147.253 73.4877 146.293 75.2268 145.364 77.0181C147.406 77.8602 156.546 81.5311 162.451 82.1626C162.614 82.1799 162.751 82.2998 162.795 82.465C165.721 81.8157 168.558 80.787 171.24 79.4028L171.236 79.3837ZM161.046 82.8287C154.998 81.8411 146.725 78.4957 144.984 77.7722C144.281 79.1502 143.599 80.5537 142.938 81.9827C149.729 83.5751 155.744 83.7358 161.046 82.8095V82.8287ZM142.47 81.0947C143.082 79.7754 143.713 78.4829 144.362 77.2172C143.546 74.8516 142.942 70.7521 142.646 68.4516C142.619 68.7323 142.593 69.0156 142.569 69.3014C142.4 71.2714 142.311 73.3129 142.302 75.4258C142.302 77.2478 142.358 79.1336 142.47 81.0832V81.0947ZM142.891 66.3043C143.079 66.3292 143.224 66.4892 143.238 66.687C143.238 66.687 143.875 72.7234 144.885 76.2258C145.782 74.511 146.709 72.8446 147.666 71.2268C146.354 66.3934 145.472 61.4434 145.031 56.4402C144.035 59.659 143.32 62.9656 142.894 66.3196L142.891 66.3043ZM145.485 55.0392C145.641 55.0964 145.748 55.2487 145.752 55.422C146.13 60.4444 146.961 65.4184 148.233 70.2775C149.738 67.7818 151.296 65.4009 152.909 63.1349C152.44 61.6842 149.718 53.0411 149.338 46.6143C148.66 47.7703 148.025 48.976 147.435 50.2315C146.699 51.8003 146.047 53.4104 145.481 55.0545L145.485 55.0392ZM149.919 45.6306C150.031 45.7038 150.101 45.8298 150.106 45.9674C150.318 51.7818 152.715 59.8277 153.491 62.3004C155.408 59.6478 157.38 57.1521 159.385 54.8095C155.803 46.8708 155.265 40.4019 155.185 38.7942C153.21 40.8781 151.446 43.169 149.919 45.6306ZM155.869 38.0861C155.941 38.1627 155.982 38.2657 155.982 38.3732C155.982 38.3923 156.055 45.2631 159.981 54.1205C162.605 51.1004 165.272 48.333 167.929 45.8143C166.322 42.0287 164.771 32.6047 164.562 31.3148C162.35 32.6289 160.251 34.1401 158.287 35.8315C157.458 36.5486 156.652 37.3014 155.869 38.0899V38.0861ZM165.276 30.8937C165.299 30.9363 165.314 30.9831 165.32 31.0315C165.32 31.0622 166.904 41.1024 168.551 45.2248C171.688 42.2875 174.97 39.5227 178.382 36.9416C177.218 32.088 177.248 26.8287 177.259 25.9827C175.463 26.4727 173.701 27.0507 171.972 27.7167C169.669 28.6037 167.431 29.6656 165.276 30.8937ZM178.045 25.7722C178.05 25.809 178.05 25.8464 178.045 25.8832C178.002 29.4237 178.345 32.9578 179.066 36.4172C182.48 33.8717 185.7 31.7473 188.557 30.0134C188.33 28.028 188.292 26.0239 188.444 24.0306C184.935 24.3152 181.453 24.8977 178.034 25.7722H178.045ZM189.256 23.9693C189.258 23.991 189.258 24.0128 189.256 24.0344C189.113 25.8761 189.134 27.7278 189.318 29.5655C192.755 27.4856 196.315 25.6369 199.977 24.0306C198.269 23.8928 196.562 23.815 194.854 23.7971C192.993 23.7792 191.127 23.8354 189.256 23.9655V23.9693Z" fill="#9FB2D9"/>
<path fill-rule="evenodd" clip-rule="evenodd" d="M78.5929 134.737C78.5929 134.737 70.6641 130.457 72.1167 119.954C73.5693 109.451 67.4296 106.121 65.86 102.997C64.2903 99.8736 67.7955 94.8325 67.3967 90.4191C66.9979 86.0057 62.1352 84.8268 64.4147 78.7713C66.6942 72.7158 64.7623 70.4306 61.7767 63.9234C58.791 57.4162 63.2402 47.5291 65.3368 47.5827C67.4333 47.6363 64.8721 49.9559 66.7308 54.266C68.5895 58.576 76.4269 59.889 78.8783 63.4947C81.3298 67.1004 77.0196 71.8736 79.8186 76.7387C82.6177 81.6038 90.9527 80.0957 93.159 84.8153C95.3653 89.5349 90.1075 95.1961 91.6369 100.126C93.1663 105.056 98.7973 107.881 101.15 111.858C103.503 115.835 107.959 123.453 100.689 132.547C93.4188 141.642 78.5929 134.737 78.5929 134.737Z" fill="#9FB2D9"/>
<path fill-rule="evenodd" clip-rule="evenodd" d="M64.466 56.5856C64.3866 56.3139 64.5222 56.0244 64.776 55.9235C65.0298 55.8225 65.315 55.9447 65.4283 56.2029L98.2339 145.355L97.0008 145.003L64.466 56.5856Z" fill="#B4C5E6"/>
<path fill-rule="evenodd" clip-rule="evenodd" d="M72.0179 124.077C71.9764 123.663 71.9508 123.236 71.9411 122.794L93.4883 135.46L91.582 130.281C91.5723 130.26 91.5637 130.238 91.5564 130.216L90.5795 127.56L72.3362 116.842C72.3362 116.406 72.3216 115.983 72.2923 115.575L90.0014 125.987L88.278 121.301L71.4215 111.388C71.2125 110.815 70.9681 110.258 70.6897 109.719L87.6926 119.713L86.8364 117.386C86.8264 117.362 86.8178 117.338 86.8108 117.313L83.0568 107.139L66.1966 97.2249C66.2954 96.8766 66.3979 96.5206 66.5003 96.1646L82.486 105.562L80.6163 100.482L67.3236 92.6622C67.3806 92.2729 67.4173 91.8806 67.4333 91.4871L80.0345 98.8938L78.6295 95.066L78.6076 95.0124L74.5206 83.912L64.6416 78.1129C64.766 77.7506 64.8745 77.401 64.9672 77.0641L73.9279 82.3311L70.3604 72.6354C70.3519 72.6168 70.3446 72.5976 70.3385 72.578L64.4513 56.578C64.372 56.3063 64.5075 56.0168 64.7614 55.9158C65.0152 55.8149 65.3004 55.937 65.4136 56.1952L70.7629 70.7407L73.8217 59.8124L74.7584 60.3139L71.374 72.4019L75.3987 83.3263V83.3684L79.1162 93.4737L84.9704 80.3062C85.2997 80.4172 85.6327 80.5244 85.9693 80.6239L79.6174 94.8746L81.0334 98.7254L88.7683 81.5005C89.1013 81.6191 89.4269 81.7455 89.7379 81.8833L81.6591 99.8737L81.7835 99.9464C81.9404 100.037 82.0409 100.207 82.0491 100.394C82.0573 100.581 81.972 100.76 81.8237 100.865L83.913 106.542V106.591L87.2938 115.778L93.0236 103.028C93.248 103.349 93.492 103.663 93.7554 103.969L87.8207 117.175L88.6915 119.537L95.047 105.397C95.3055 105.652 95.569 105.914 95.8373 106.182L89.2513 120.957L91.4722 126.967V127.012L92.0869 128.681L100.254 110.568C100.51 110.886 100.744 111.208 100.96 111.537L92.6285 130.078L94.9738 136.452V136.498C94.5677 136.632 94.1579 136.743 93.7444 136.838L72.0179 124.077Z" fill="#B4C5E6"/>
<path fill-rule="evenodd" clip-rule="evenodd" d="M74.9048 156.758C72.7095 154.982 70.4812 154.178 69.292 153.026C66.9284 150.729 68.52 145.03 66.8077 141.19C65.0953 137.351 60.3534 137.929 60.54 131.717C60.7266 125.504 58.2861 124.084 53.5881 119.261C48.8901 114.438 49.845 104.027 51.7586 103.361C53.6722 102.695 52.0696 105.657 55.0516 108.903C58.0336 112.149 65.5051 110.699 68.8201 113.114C72.135 115.529 69.7275 121.278 73.7413 124.712C77.7551 128.145 84.7911 123.981 88.2268 127.487C91.6625 130.993 88.6732 137.853 91.571 141.791C94.4689 145.73 100.396 146.358 103.751 149.137C105.639 150.699 108.468 153.079 109.917 156.75L74.9048 156.758Z" fill="#C0CDEA"/>
<path fill-rule="evenodd" clip-rule="evenodd" d="M90.8064 156.758L86.0498 150.966L67.8212 147.721C67.8212 147.372 67.7883 147.02 67.77 146.664L85.0399 149.726L81.7945 145.788L67.4334 143.231C67.3647 142.861 67.2768 142.495 67.1699 142.136L80.7846 144.559L78.3368 141.627L78.3003 141.585L71.2093 132.972L60.551 131.058C60.551 130.676 60.551 130.343 60.5217 130.006L70.2031 131.728L64.0123 124.207L63.9757 124.161L53.7564 111.747C53.6049 111.618 53.5409 111.406 53.5934 111.209C53.6458 111.012 53.8048 110.865 53.9986 110.836C54.1924 110.807 54.3844 110.9 54.4882 111.074L63.7745 122.354L63.1634 111.495L64.1586 111.629L64.8502 123.636L71.8277 132.111L71.857 132.145L78.3003 139.996L79.5333 126.174C79.8626 126.174 80.1956 126.143 80.5285 126.124L79.1967 141.083L81.6555 144.069L83.3203 125.979C83.6569 125.979 83.9862 125.979 84.3118 125.979L82.5738 144.877L82.7056 144.899C82.8737 144.929 83.0153 145.048 83.08 145.213C83.1448 145.378 83.1236 145.566 83.0239 145.711L86.6499 150.113L86.6828 150.151L92.1053 156.739L90.8064 156.758ZM92.6029 156.758L93.7847 143.9C94.0884 144.115 94.3994 144.318 94.7214 144.505L93.5944 156.754L92.6029 156.758ZM95.2739 156.758L96.324 145.359C96.6386 145.509 96.9557 145.656 97.2753 145.799L96.2654 156.758H95.2739ZM101.761 156.758L102.54 148.272C102.866 148.471 103.181 148.681 103.473 148.903L102.742 156.758H101.761Z" fill="#E1E8F6"/>
<path fill-rule="evenodd" clip-rule="evenodd" d="M8.60568 159.923H6.61159C5.77868 159.919 5.10447 159.214 5.10046 158.343C5.10447 157.471 5.77868 156.766 6.61159 156.762H8.60568C9.43859 156.766 10.1128 157.471 10.1168 158.343C10.1128 159.214 9.43859 159.919 8.60568 159.923Z" fill="#00000F"/>
<path fill-rule="evenodd" clip-rule="evenodd" d="M13.4611 159.923H232.724C233.557 159.919 234.231 159.214 234.235 158.343C234.231 157.471 233.557 156.766 232.724 156.762H13.4611C12.6282 156.766 11.954 157.471 11.95 158.343C11.952 159.215 12.6273 159.921 13.4611 159.923Z" fill="#00000F"/>
<path fill-rule="evenodd" clip-rule="evenodd" d="M29.5601 96.5244C30.3811 95.6664 31.6671 95.5343 32.6319 96.2089C33.5967 96.8836 33.9718 98.1772 33.5279 99.2989C33.084 100.421 31.9446 101.058 30.8063 100.822C29.668 100.586 28.8476 99.5413 28.8466 98.3273C28.8453 97.6509 29.1021 97.0019 29.5601 96.5244ZM30.087 93.9981C29.7533 94.0984 29.4326 94.2411 29.132 94.423C28.8283 94.6062 28.547 94.8273 28.2941 95.0813C28.246 95.13 28.1728 95.1394 28.1148 95.1043L26.9842 94.4191C26.8532 94.3512 26.6943 94.3994 26.6184 94.5302L25.8207 95.9732C25.7551 96.1093 25.7995 96.2753 25.9232 96.356L27.0465 97.0335C27.1034 97.0686 27.1316 97.1386 27.116 97.2058C26.9904 97.7401 26.9582 98.2938 27.0208 98.8402C27.042 99.022 27.0738 99.2022 27.116 99.3799C27.1315 99.451 27.0982 99.524 27.0355 99.556L25.9049 100.287C25.7812 100.368 25.7368 100.534 25.8024 100.67L26.6037 102.121C26.6808 102.25 26.8395 102.296 26.9696 102.228L28.0929 101.55C28.1509 101.515 28.224 101.525 28.2722 101.573C28.5249 101.827 28.8063 102.048 29.1101 102.232C29.4128 102.415 29.736 102.559 30.0724 102.66C30.1379 102.679 30.183 102.742 30.1821 102.813V104.18C30.1841 104.341 30.3097 104.471 30.4639 104.471H32.0665C32.2206 104.471 32.3462 104.341 32.3482 104.18V102.813C32.3478 102.741 32.3946 102.678 32.4616 102.66C32.7953 102.56 33.116 102.417 33.4166 102.235C33.7204 102.052 34.0018 101.831 34.2545 101.577C34.3091 101.532 34.3864 101.532 34.4411 101.577L35.5644 102.255C35.629 102.292 35.7052 102.302 35.7766 102.281C35.848 102.261 35.9086 102.211 35.9449 102.144L36.7425 100.7C36.8081 100.564 36.7637 100.398 36.6401 100.318L35.5095 99.6364C35.4526 99.6012 35.4243 99.5313 35.4399 99.4641C35.6078 98.75 35.6078 98.004 35.4399 97.29C35.4244 97.2188 35.4577 97.1459 35.5204 97.1139L36.6437 96.4364C36.7674 96.3557 36.8118 96.1897 36.7462 96.0536L35.9632 94.5455C35.8861 94.4161 35.7274 94.3697 35.5973 94.4383L34.4667 95.1235C34.4071 95.1595 34.3316 95.1485 34.2837 95.0967C34.0321 94.8427 33.752 94.6216 33.4495 94.4383C33.148 94.2548 32.826 94.1108 32.4909 94.0096C32.4266 93.9909 32.3819 93.93 32.3811 93.8603V92.4938C32.3791 92.3325 32.2536 92.2029 32.0994 92.2029H30.4968C30.3426 92.2029 30.2171 92.3325 30.2151 92.4938V93.8603C30.209 93.9329 30.1559 93.9915 30.087 94.0019V93.9981Z" fill="#C0CDEA"/>
<path fill-rule="evenodd" clip-rule="evenodd" d="M12.4878 71.7129C14.573 69.5319 17.8994 69.361 20.1788 71.3179C22.4582 73.2747 22.9471 76.7211 21.3093 79.2862C19.6715 81.8513 16.441 82.6985 13.8402 81.2451C11.2394 79.7917 10.1164 76.5115 11.2438 73.6612C11.5322 72.9327 11.9549 72.2707 12.4878 71.7129ZM14.5514 70.9244C12.0625 71.9981 10.7587 74.8725 11.5378 77.5685C12.3168 80.2645 14.9243 81.902 17.565 81.3536C20.2057 80.8051 22.0176 78.2498 21.7531 75.4469C21.4886 72.644 19.2341 70.5087 16.5418 70.511C15.8589 70.5112 15.1826 70.6516 14.5514 70.9244ZM13.9038 66.5071C13.1803 66.7275 12.485 67.0386 11.8329 67.4335C11.1696 67.8354 10.5553 68.32 10.0034 68.8765C9.80832 69.0787 9.50691 69.1166 9.27163 68.9684C8.43009 68.4593 7.54463 67.954 6.71041 67.4373C6.67145 67.4169 6.62932 67.4039 6.586 67.399C6.5389 67.3892 6.49041 67.3892 6.44331 67.399C6.39696 67.4117 6.35345 67.4338 6.31525 67.4641C6.27821 67.4946 6.24715 67.5323 6.22377 67.5751C5.60908 68.5473 4.99439 69.8028 4.4236 70.8325C4.40069 70.8751 4.38579 70.9219 4.37969 70.9703C4.36984 71.0208 4.36984 71.0729 4.37969 71.1234C4.39184 71.1719 4.41297 71.2174 4.44189 71.2574C4.47104 71.2961 4.50707 71.3286 4.548 71.3531C5.30539 71.8775 6.28232 72.4019 7.08727 72.8842C7.2002 72.9524 7.28882 73.0572 7.33974 73.1827C7.35647 73.2246 7.36874 73.2682 7.37632 73.3129H7.42755L7.36901 73.5617C7.32266 73.7556 7.28241 73.9496 7.24826 74.1435C7.21411 74.3374 7.18606 74.5352 7.16411 74.7368C7.14216 74.9359 7.12386 75.1196 7.11288 75.3339C7.10191 75.5483 7.11288 75.7167 7.11288 75.9387C7.11288 76.1607 7.11288 76.3483 7.11288 76.5435C7.11288 76.7387 7.14216 76.9263 7.16411 77.1406C7.18606 77.355 7.21533 77.5426 7.24826 77.7339C7.28119 77.9253 7.32144 78.1167 7.36901 78.3196C7.43489 78.6025 7.30613 78.8957 7.058 79.0277L4.85901 80.3827L4.59191 80.5435C4.55098 80.568 4.51495 80.6005 4.4858 80.6392C4.45688 80.6792 4.43575 80.7247 4.4236 80.7732C4.41374 80.8237 4.41374 80.8758 4.4236 80.9263C4.42969 80.9747 4.4446 81.0215 4.46751 81.0641L6.1323 84.0804L6.26768 84.3253C6.29105 84.3681 6.32211 84.4058 6.35915 84.4363C6.39736 84.4666 6.44087 84.4887 6.48721 84.5014C6.53432 84.5112 6.58281 84.5112 6.62991 84.5014C6.67635 84.4956 6.72117 84.48 6.76163 84.4555C7.56659 83.9272 8.47399 83.422 9.32285 82.9244C9.55733 82.7752 9.85865 82.8115 10.0546 83.0124C11.1581 84.1302 12.5077 84.9466 13.9843 85.3894C14.2424 85.4665 14.4202 85.7135 14.4197 85.9942V89.0564C14.4191 89.1062 14.4278 89.1556 14.4453 89.2019C14.5014 89.3448 14.6342 89.4384 14.7819 89.4392H18.3823C18.4298 89.4398 18.4771 89.4307 18.5213 89.4124C18.5652 89.3926 18.605 89.364 18.6384 89.3282C18.673 89.2921 18.7004 89.2492 18.7189 89.2019C18.7364 89.1556 18.7451 89.1062 18.7445 89.0564V85.9942C18.7468 85.7027 18.9383 85.4503 19.2092 85.3818C19.5688 85.2768 19.9219 85.1489 20.2666 84.999C21.3224 84.5272 22.2871 83.8579 23.1132 83.0239C23.3127 82.8279 23.6138 82.798 23.845 82.9512L26.355 84.4823C26.3957 84.5062 26.4404 84.5218 26.4867 84.5282C26.5351 84.538 26.5847 84.538 26.6331 84.5282C26.6794 84.5155 26.7229 84.4934 26.7611 84.4631C26.7982 84.4326 26.8292 84.3949 26.8526 84.3521C27.449 83.265 28.0564 82.1818 28.6528 81.0909C28.6757 81.0483 28.6906 81.0015 28.6967 80.9531C28.7061 80.9038 28.7061 80.8531 28.6967 80.8038C28.6845 80.7553 28.6634 80.7098 28.6345 80.6698C28.6071 80.6308 28.5722 80.5982 28.532 80.5741L25.9928 79.043C25.8521 78.961 25.7492 78.8229 25.7074 78.6603H25.6415L25.7074 78.377C25.7549 78.1818 25.7952 77.9942 25.8281 77.7952C25.861 77.5961 25.8903 77.4124 25.9123 77.2019C25.9342 76.9914 25.9525 76.8191 25.9635 76.6048C25.9745 76.3904 25.9635 76.222 25.9635 76C25.9635 75.778 25.9635 75.5904 25.9635 75.399C25.9635 75.2076 25.9342 75.0162 25.9123 74.8019C25.8903 74.5875 25.8574 74.3961 25.8245 74.2086C25.7915 74.021 25.7513 73.8258 25.7037 73.6268C25.6372 73.3448 25.7644 73.0519 26.0111 72.9186L28.5247 71.3875C28.5661 71.3637 28.6022 71.3311 28.6308 71.2918C28.6597 71.2519 28.6809 71.2064 28.693 71.1579C28.7024 71.1086 28.7024 71.0579 28.693 71.0086C28.6869 70.9601 28.672 70.9134 28.6491 70.8708C28.0344 69.9138 27.4197 68.6392 26.8489 67.6095C26.8256 67.5667 26.7945 67.529 26.7575 67.4985C26.7193 67.4683 26.6758 67.4462 26.6294 67.4335C26.5811 67.4237 26.5314 67.4237 26.4831 67.4335C26.4365 67.441 26.3918 67.4579 26.3513 67.4832L23.8084 69.0143C23.6978 69.0815 23.5696 69.1096 23.4425 69.0947C23.3126 69.0766 23.1919 69.0148 23.0986 68.9186C22.5469 68.364 21.9326 67.882 21.2691 67.4832C20.6092 67.0849 19.9051 66.7725 19.1726 66.5531C18.9145 66.476 18.7367 66.2291 18.7372 65.9483V62.8861C18.7378 62.8363 18.7291 62.7869 18.7116 62.7406C18.6926 62.6947 18.6653 62.6531 18.6311 62.6182C18.5977 62.5823 18.5579 62.5537 18.514 62.5339C18.4698 62.5156 18.4225 62.5065 18.375 62.5071H14.7453C14.6978 62.5065 14.6505 62.5156 14.6063 62.5339C14.5611 62.5533 14.52 62.5819 14.4856 62.6182C14.418 62.6894 14.3798 62.7857 14.3794 62.8861V65.9483C14.3785 66.2403 14.1864 66.4935 13.9148 66.5607L13.9038 66.5071ZM12.6378 66.3923C12.2698 66.5568 11.9118 66.7447 11.5658 66.955C11.2158 67.1667 10.8785 67.4006 10.5559 67.6555C10.233 67.9101 9.92504 68.1849 9.63386 68.4784C9.62295 68.4895 9.60874 68.4962 9.59361 68.4976C9.57936 68.5025 9.56396 68.5025 9.54971 68.4976L6.98848 66.9665C6.8888 66.9093 6.77945 66.8729 6.6665 66.8593C6.43439 66.8314 6.20098 66.8986 6.01522 67.0469C5.92155 67.1217 5.84317 67.2154 5.78471 67.3225C5.16635 68.3713 4.57727 69.5081 3.98453 70.5799C3.92612 70.6872 3.8888 70.8056 3.87476 70.9282C3.84475 71.1748 3.9092 71.4239 4.05405 71.621C4.12565 71.7189 4.21521 71.8009 4.31749 71.8622C5.13342 72.3904 6.02253 72.8918 6.85676 73.3933C6.86983 73.4011 6.8801 73.4132 6.88603 73.4277C6.89053 73.4427 6.89053 73.4587 6.88603 73.4737L6.82749 73.7225C6.80188 73.8411 6.77992 73.9636 6.75797 74.1052C6.72138 74.3158 6.68845 74.5263 6.6665 74.733C6.64455 74.9397 6.62625 75.1464 6.61162 75.3646C6.59698 75.5827 6.59332 75.7933 6.59332 76C6.59332 76.2067 6.59332 76.4172 6.61162 76.6354C6.62991 76.8536 6.64089 77.0641 6.6665 77.267C6.69211 77.4698 6.72138 77.6804 6.75797 77.8947C6.79456 78.1091 6.83847 78.3119 6.88603 78.511C6.89196 78.527 6.89196 78.5447 6.88603 78.5607C6.87917 78.5758 6.86754 78.588 6.8531 78.5952C5.92009 79.1158 4.97243 79.7435 4.05039 80.2871L4.08332 80.3292L4.05405 80.3674C3.90956 80.5647 3.84515 80.8136 3.87476 81.0603C3.88963 81.1832 3.92822 81.3017 3.98819 81.4086L5.92009 84.911L5.95667 84.888L6.01522 84.9416C6.20401 85.0922 6.44218 85.1582 6.67748 85.1253C6.79066 85.1105 6.9 85.0728 6.99946 85.0143C7.84466 84.5435 8.71548 83.977 9.56068 83.4832C9.57501 83.4788 9.59027 83.4788 9.60459 83.4832C9.61957 83.4851 9.63363 83.4918 9.64484 83.5024C10.2266 84.0934 10.8754 84.6076 11.5767 85.0335C12.2745 85.4561 13.0192 85.7877 13.794 86.021C13.8086 86.0257 13.8214 86.0351 13.8306 86.0478C13.8356 86.0627 13.8356 86.0789 13.8306 86.0937V89.1559C13.8306 89.6739 14.232 90.0937 14.727 90.0937H18.3274C18.4443 90.0934 18.56 90.0687 18.6677 90.021C18.8882 89.9258 19.0633 89.7426 19.1543 89.5119C19.1996 89.3992 19.2232 89.2782 19.2238 89.1559V86.0937C19.2193 86.0788 19.2193 86.0628 19.2238 86.0478C19.2336 86.0339 19.2479 86.0244 19.2641 86.021C19.6488 85.9048 20.0263 85.7642 20.3947 85.6C21.5296 85.0857 22.5632 84.3549 23.4425 83.4449C23.4534 83.4339 23.4676 83.4271 23.4828 83.4258C23.497 83.4208 23.5124 83.4208 23.5267 83.4258L26.0659 84.9569C26.1673 85.0177 26.2793 85.0568 26.3952 85.0717C26.6305 85.1046 26.8687 85.0386 27.0575 84.888C27.149 84.8149 27.226 84.7239 27.2844 84.6201C27.9503 83.4985 28.5833 82.2698 29.2199 81.1138L29.187 81.0909C29.187 81.0603 29.187 81.0335 29.187 81.0028C29.2045 80.875 29.1971 80.7448 29.165 80.6201C29.135 80.5008 29.0828 80.389 29.0114 80.2909C28.9409 80.1933 28.8526 80.1113 28.7516 80.0497L26.2123 78.5186C26.1863 78.5017 26.1732 78.4696 26.1794 78.4382L26.2452 78.1588C26.2672 78.0478 26.2891 77.9368 26.3074 77.8258C26.344 77.6153 26.377 77.4048 26.3989 77.1981C26.4209 76.9914 26.4428 76.7847 26.4538 76.5665C26.4648 76.3483 26.4721 76.1378 26.4721 75.9311C26.4721 75.7244 26.4721 75.5138 26.4538 75.2957C26.4355 75.0775 26.4245 74.867 26.3989 74.6641C26.3733 74.4612 26.344 74.2507 26.3074 74.0363C26.2708 73.822 26.2269 73.6191 26.1794 73.4201C26.1741 73.4039 26.1741 73.3864 26.1794 73.3703C26.1862 73.3552 26.1979 73.343 26.2123 73.3359L28.7479 71.8048C28.8492 71.7435 28.9375 71.6615 29.0077 71.5636C29.1516 71.3661 29.2148 71.1169 29.1833 70.8708C29.1689 70.7524 29.1329 70.6381 29.0772 70.5339C28.4735 69.3626 27.7783 68.1799 27.138 67.0201L27.1014 67.043L27.0429 66.9894C26.8544 66.8379 26.6164 66.7705 26.3806 66.8019C26.2647 66.8171 26.1528 66.8561 26.0513 66.9167L25.8647 67.0315L23.5084 68.4555C23.4835 68.4753 23.4491 68.4753 23.4242 68.4555C23.134 68.1635 22.8273 67.8899 22.5058 67.6363C22.1842 67.383 21.8482 67.1504 21.4996 66.9397C20.8019 66.5169 20.0573 66.1852 19.2824 65.9521C19.2677 65.9476 19.2548 65.9382 19.2458 65.9253C19.2407 65.9105 19.2407 65.8943 19.2458 65.8794V62.8172C19.2461 62.5685 19.1512 62.33 18.9823 62.155C18.8993 62.0686 18.8012 61.9997 18.6933 61.9521C18.5855 61.9047 18.4699 61.88 18.353 61.8794H14.7453C14.6284 61.88 14.5128 61.9047 14.4051 61.9521C14.2973 62 14.1992 62.0689 14.116 62.155C13.9474 62.3302 13.8526 62.5686 13.8526 62.8172V65.8794C13.8568 65.8944 13.8568 65.9103 13.8526 65.9253C13.8422 65.9385 13.8281 65.9479 13.8123 65.9521C13.4174 66.0723 13.0301 66.2181 12.6524 66.3885L12.6378 66.3923Z" fill="#C0CDEA"/>
<path fill-rule="evenodd" clip-rule="evenodd" d="M114.831 24.3215C115.653 23.4614 116.941 23.3285 117.907 24.004C118.874 24.6795 119.25 25.9754 118.805 27.099C118.361 28.2227 117.219 28.8613 116.079 28.6243C114.939 28.3872 114.117 27.3406 114.117 26.1244C114.116 25.448 114.373 24.799 114.831 24.3215ZM115.357 21.7952C115.024 21.8956 114.703 22.0383 114.403 22.2201C114.099 22.4032 113.817 22.6243 113.565 22.8785C113.516 22.9271 113.443 22.9365 113.385 22.9014L112.255 22.2163C112.192 22.1818 112.118 22.1736 112.05 22.1933C111.977 22.213 111.915 22.2627 111.878 22.3311L111.08 23.7741C111.015 23.9103 111.059 24.0762 111.183 24.1569L112.306 24.8344C112.363 24.8696 112.391 24.9395 112.375 25.0067C112.333 25.1844 112.302 25.3646 112.28 25.5464C112.238 25.9112 112.238 26.2801 112.28 26.645C112.301 26.8267 112.333 27.007 112.375 27.1847C112.391 27.2558 112.358 27.3288 112.295 27.3607L111.172 28.0383C111.048 28.1189 111.004 28.2849 111.069 28.421L111.871 29.8718C111.948 30.0011 112.106 30.0476 112.236 29.9789L113.36 29.3014C113.418 29.2664 113.491 29.2757 113.539 29.3244C114.044 29.8348 114.661 30.208 115.336 30.4115C115.4 30.4302 115.444 30.491 115.445 30.5607V31.9273C115.445 32.0886 115.569 32.2199 115.723 32.222H117.326C117.48 32.2199 117.604 32.0886 117.604 31.9273V30.5607C117.604 30.4885 117.65 30.4253 117.717 30.4076C118.051 30.307 118.372 30.1643 118.672 29.9828C118.976 29.7995 119.257 29.5784 119.51 29.3244C119.565 29.279 119.642 29.279 119.697 29.3244L120.82 30.0019C120.95 30.0705 121.109 30.0241 121.186 29.8947L121.984 28.4517C122.049 28.3155 122.005 28.1496 121.881 28.0689L120.751 27.3875C120.694 27.3524 120.666 27.2825 120.681 27.2153C120.724 27.0377 120.755 26.8574 120.776 26.6756C120.819 26.3108 120.819 25.9418 120.776 25.577C120.756 25.3952 120.724 25.2149 120.681 25.0373C120.666 24.9662 120.699 24.8932 120.762 24.8612L121.885 24.1837C122.009 24.103 122.053 23.937 121.987 23.8009L121.19 22.3579C121.153 22.2895 121.091 22.2398 121.018 22.2201C120.946 22.1995 120.87 22.2091 120.806 22.2469L119.675 22.932C119.615 22.9681 119.54 22.9571 119.492 22.9052C119.24 22.6513 118.96 22.4302 118.658 22.2469C118.355 22.0633 118.032 21.9193 117.696 21.8182C117.631 21.7995 117.587 21.7386 117.586 21.6689V20.2871C117.584 20.1273 117.46 19.9982 117.308 19.9962H115.705C115.552 19.9982 115.429 20.1273 115.427 20.2871V21.6536C115.429 21.7113 115.401 21.7657 115.354 21.7952H115.357Z" fill="#C0CDEA"/>
<path fill-rule="evenodd" clip-rule="evenodd" d="M233.529 72.8076C234.351 71.9475 235.639 71.8146 236.606 72.4901C237.572 73.1656 237.948 74.4614 237.504 75.5851C237.059 76.7088 235.917 77.3474 234.777 77.1104C233.637 76.8733 232.815 75.8267 232.815 74.6105C232.814 73.9341 233.071 73.2853 233.529 72.8076ZM234.056 70.2813C233.722 70.3817 233.401 70.5244 233.101 70.7062C232.797 70.8905 232.515 71.1129 232.263 71.3684C232.215 71.417 232.141 71.4264 232.083 71.3913L230.953 70.7062C230.822 70.6382 230.663 70.6864 230.587 70.8172L229.778 72.2641C229.713 72.4002 229.757 72.5662 229.881 72.6468L231.004 73.3244C231.061 73.3595 231.089 73.4294 231.074 73.4966C231.031 73.6743 231 73.8545 230.978 74.0363C230.937 74.4012 230.937 74.7699 230.978 75.1349C231 75.3166 231.031 75.4969 231.074 75.6746C231.089 75.7457 231.056 75.8187 230.993 75.8507L229.873 76.555C229.809 76.5945 229.761 76.6591 229.742 76.7349C229.723 76.81 229.734 76.8898 229.771 76.9569L230.572 78.4076C230.649 78.5369 230.808 78.5834 230.938 78.5148L232.061 77.8373C232.119 77.8022 232.193 77.8116 232.241 77.8602C232.493 78.1157 232.775 78.3381 233.079 78.5224C233.38 78.7044 233.702 78.8471 234.037 78.9473C234.102 78.966 234.146 79.0268 234.147 79.0966V80.4631C234.147 80.6259 234.273 80.7578 234.429 80.7578H236.031C236.187 80.7578 236.313 80.6259 236.313 80.4631V79.0966C236.313 79.0243 236.36 78.9611 236.427 78.9435C236.76 78.843 237.081 78.7003 237.382 78.5186C237.685 78.3337 237.966 78.1114 238.219 77.8564C238.274 77.811 238.351 77.811 238.406 77.8564L239.529 78.5339C239.659 78.6026 239.818 78.5561 239.895 78.4267L240.693 76.9837C240.758 76.8476 240.714 76.6816 240.59 76.6009L239.46 75.9196C239.403 75.8844 239.375 75.8145 239.39 75.7473C239.432 75.5696 239.464 75.3894 239.485 75.2076C239.527 74.8427 239.527 74.4739 239.485 74.109C239.464 73.9273 239.432 73.747 239.39 73.5693C239.374 73.4991 239.406 73.4265 239.467 73.3933L240.59 72.7157C240.714 72.6351 240.758 72.4691 240.693 72.333L239.932 70.8133C239.894 70.7453 239.832 70.6957 239.76 70.6755C239.688 70.6545 239.612 70.6642 239.548 70.7023L238.417 71.3875C238.357 71.4236 238.282 71.4125 238.234 71.3607C237.729 70.8513 237.112 70.4794 236.438 70.2775C236.375 70.2574 236.332 70.1969 236.331 70.1282V68.7617C236.329 68.6004 236.204 68.4708 236.05 68.4708H234.447C234.293 68.4708 234.167 68.6004 234.165 68.7617V70.1282C234.166 70.1994 234.121 70.2622 234.056 70.2813Z" fill="#C0CDEA"/>
<path fill-rule="evenodd" clip-rule="evenodd" d="M242.702 87.8277C242.702 87.5867 242.515 87.3914 242.285 87.3914C242.054 87.3914 241.867 87.5867 241.867 87.8277V88.8574H240.883C240.653 88.8574 240.466 89.0528 240.466 89.2937C240.466 89.5347 240.653 89.7301 240.883 89.7301H241.853V90.756C241.853 90.9969 242.04 91.1923 242.27 91.1923C242.5 91.1923 242.687 90.9969 242.687 90.756V89.7301H243.682C243.831 89.7301 243.969 89.6469 244.043 89.5119C244.118 89.3769 244.118 89.2106 244.043 89.0756C243.969 88.9406 243.831 88.8574 243.682 88.8574H242.702V87.8277Z" fill="#9FB2D9"/>
<path fill-rule="evenodd" clip-rule="evenodd" d="M152.525 82.4766H127.644C126.738 82.4787 126.003 83.2469 126.001 84.1952C126.003 85.1435 126.738 85.9118 127.644 85.9139H152.525C153.431 85.9118 154.165 85.1435 154.167 84.1952C154.165 83.2469 153.431 82.4787 152.525 82.4766Z" fill="#00000F"/>
<path fill-rule="evenodd" clip-rule="evenodd" d="M151.69 70.2316H140.176C140.077 70.2339 139.994 70.3095 139.978 70.4115L137.915 85.7225C137.907 85.7682 137.919 85.8151 137.948 85.85C137.978 85.885 138.02 85.9043 138.065 85.9024H153.798C153.842 85.9031 153.883 85.8833 153.912 85.8485C153.94 85.8137 153.952 85.7675 153.944 85.7225L151.881 70.4115C151.865 70.3123 151.786 70.2375 151.69 70.2316V70.2316Z" fill="#3B405F"/>
<path fill-rule="evenodd" clip-rule="evenodd" d="M158.598 82.4765H133.718C132.81 82.4849 132.08 83.2607 132.086 84.2105C132.088 85.1588 132.822 85.927 133.729 85.9291H158.609C159.046 85.9302 159.465 85.7497 159.775 85.4273C160.084 85.105 160.258 84.6673 160.259 84.2105C160.262 83.749 160.088 83.3056 159.776 82.9796C159.464 82.6536 159.039 82.4724 158.598 82.4765Z" fill="#3B405F"/>
<path d="M115.954 36.467H171.126C171.593 36.4733 171.968 36.8707 171.968 37.3589V75.9579C171.968 76.4505 171.586 76.8498 171.115 76.8498H115.954C115.483 76.8498 115.101 76.4505 115.101 75.9579V37.3589C115.1 37.122 115.19 36.8946 115.35 36.7271C115.51 36.5596 115.727 36.466 115.954 36.467Z" fill="#00000F"/>
<path d="M118.65 36.467H173.823C174.292 36.467 174.672 36.8646 174.672 37.355V75.9579C174.672 76.4505 174.29 76.8498 173.819 76.8498H118.65C118.18 76.8498 117.798 76.4505 117.798 75.9579V37.3588C117.798 36.8663 118.18 36.467 118.65 36.467Z" fill="#3B405F"/>
<path fill-rule="evenodd" clip-rule="evenodd" d="M173.362 37.0488H119.112C118.801 37.0508 118.55 37.3135 118.548 37.6382V72.444C118.548 72.6554 118.712 72.8267 118.914 72.8267H173.574C173.776 72.8267 173.94 72.6554 173.94 72.444V37.6382C173.939 37.4795 173.877 37.3278 173.769 37.2171C173.66 37.1063 173.514 37.0457 173.362 37.0488Z" fill="#101537"/>
<rect x="120.14" y="38.7139" width="52.1904" height="32.4249" fill="#5EB9BD"/>
<path fill-rule="evenodd" clip-rule="evenodd" d="M141.402 78.4344L140.867 82.4765H138.365L139.122 76.8459H152.766L152.956 78.2545H141.599C141.5 78.2568 141.417 78.3325 141.402 78.4344Z" fill="#101537"/>
<rect x="120.14" y="38.7139" width="52.3697" height="1.86411" fill="white"/>
<rect x="120.14" y="69.2746" width="52.3697" height="1.86411" fill="white"/>
<rect x="120.469" y="39.1119" width="13.1537" height="1.07177" fill="#E4E1E8"/>
<path d="M132.99 39.8813C133.113 39.8813 133.213 39.7768 133.213 39.6478C133.213 39.5188 133.113 39.4143 132.99 39.4143C132.866 39.4143 132.766 39.5188 132.766 39.6478C132.766 39.7768 132.866 39.8813 132.99 39.8813Z" fill="#D64C47"/>
<path d="M132.305 39.8813C132.429 39.8813 132.529 39.7768 132.529 39.6478C132.529 39.5188 132.429 39.4143 132.305 39.4143C132.182 39.4143 132.082 39.5188 132.082 39.6478C132.082 39.7768 132.182 39.8813 132.305 39.8813Z" fill="#D64C47"/>
<path d="M131.621 39.8813C131.745 39.8813 131.844 39.7768 131.844 39.6478C131.844 39.5188 131.745 39.4143 131.621 39.4143C131.498 39.4143 131.398 39.5188 131.398 39.6478C131.398 39.7768 131.498 39.8813 131.621 39.8813Z" fill="#D64C47"/>
<rect x="134.241" y="39.1119" width="13.1537" height="1.07177" fill="#E4E1E8"/>
<path d="M146.765 39.8813C146.889 39.8813 146.989 39.7768 146.989 39.6478C146.989 39.5188 146.889 39.4143 146.765 39.4143C146.642 39.4143 146.542 39.5188 146.542 39.6478C146.542 39.7768 146.642 39.8813 146.765 39.8813Z" fill="#D64C47"/>
<path d="M146.081 39.8813C146.204 39.8813 146.304 39.7768 146.304 39.6478C146.304 39.5188 146.204 39.4143 146.081 39.4143C145.958 39.4143 145.858 39.5188 145.858 39.6478C145.858 39.7768 145.958 39.8813 146.081 39.8813Z" fill="#D64C47"/>
<path d="M145.397 39.8813C145.52 39.8813 145.62 39.7768 145.62 39.6478C145.62 39.5188 145.52 39.4143 145.397 39.4143C145.274 39.4143 145.174 39.5188 145.174 39.6478C145.174 39.7768 145.274 39.8813 145.397 39.8813Z" fill="#D64C47"/>
<rect x="139.166" y="65.6574" width="6.23109" height="2.17033" fill="white"/>
<rect x="147.076" y="65.6574" width="6.23109" height="2.17033" fill="white"/>
<path fill-rule="evenodd" clip-rule="evenodd" d="M124.164 62.1627H168.309C168.465 62.1627 168.591 62.2946 168.591 62.4574C168.591 62.6202 168.465 62.7521 168.309 62.7521H124.164C124.009 62.7521 123.883 62.6202 123.883 62.4574C123.883 62.2946 124.009 62.1627 124.164 62.1627V62.1627Z" fill="white"/>
<path fill-rule="evenodd" clip-rule="evenodd" d="M127.622 63.5406H164.848C165.003 63.5406 165.129 63.6726 165.129 63.8354C165.129 63.9982 165.003 64.1301 164.848 64.1301H127.622C127.466 64.1301 127.34 63.9982 127.34 63.8354C127.34 63.6726 127.466 63.5406 127.622 63.5406Z" fill="white"/>
<path fill-rule="evenodd" clip-rule="evenodd" d="M145.851 80.7655H178.188C180.007 80.7655 181.481 82.3079 181.481 84.2105C181.481 86.1131 180.007 87.6555 178.188 87.6555H145.851C144.032 87.6555 142.558 86.1131 142.558 84.2105C142.558 82.3079 144.032 80.7655 145.851 80.7655Z" fill="#101537"/>
<path fill-rule="evenodd" clip-rule="evenodd" d="M139.674 80.7655H154.676C156.495 80.7655 157.969 82.3079 157.969 84.2105C157.969 86.1131 156.495 87.6555 154.676 87.6555H139.674C137.856 87.6555 136.381 86.1131 136.381 84.2105C136.381 83.2968 136.728 82.4206 137.346 81.7745C137.964 81.1285 138.801 80.7655 139.674 80.7655Z" fill="#070725"/>
<rect x="121.128" y="86.3809" width="104.004" height="12.8306" rx="5.03" fill="#101537"/>
<path fill-rule="evenodd" clip-rule="evenodd" d="M122.913 86.3809H223.339C224.333 86.4038 225.128 87.254 225.128 88.2947V91.8277C225.128 92.8685 224.333 93.7187 223.339 93.7416H122.913C121.919 93.7187 121.124 92.8685 121.124 91.8277V88.3062C121.118 87.261 121.914 86.4038 122.913 86.3809Z" fill="#00000F"/>
<rect x="93.4919" y="86.5416" width="31.5726" height="70.1282" rx="5.21" fill="#00000F"/>
<path d="M122.811 86.5416H147.658C148.6 86.5416 149.363 87.3402 149.363 88.3254V154.882C149.363 155.87 148.598 156.67 147.655 156.67H122.811C121.867 156.67 121.102 155.87 121.102 154.882V88.3292C121.102 87.3419 121.867 86.5416 122.811 86.5416V86.5416Z" fill="#101537"/>
<rect x="121.128" y="84.1952" width="108.922" height="4.37129" rx="1.71" fill="#D58750"/>
<rect x="90.2429" y="84.1952" width="31.9934" height="4.37129" rx="1.71" fill="#B56B41"/>
<rect x="123.22" y="90.7828" width="24.0316" height="20.1569" rx="3.89" fill="white"/>
<path fill-rule="evenodd" clip-rule="evenodd" d="M147.234 109.673H126.338C125.796 109.672 125.301 109.35 125.061 108.842C124.964 108.637 124.914 108.412 124.915 108.184V91.0048C124.909 90.9309 124.909 90.8567 124.915 90.7828H124.625C123.84 90.7849 123.204 91.4503 123.202 92.2718V109.451C123.204 110.272 123.84 110.938 124.625 110.94H145.81C146.52 110.946 147.126 110.407 147.234 109.673Z" fill="#E4E1E8"/>
<rect x="129.572" y="91.9694" width="11.3243" height="1.33206" rx="0.666029" fill="#070725"/>
<rect x="123.22" y="112.008" width="24.0316" height="20.1569" rx="3.89" fill="white"/>
<path fill-rule="evenodd" clip-rule="evenodd" d="M147.234 130.909H126.338C125.796 130.908 125.301 130.587 125.061 130.078C124.964 129.874 124.914 129.648 124.915 129.42V112.23C124.909 112.156 124.909 112.082 124.915 112.008H124.625C123.84 112.01 123.204 112.675 123.202 113.497V130.676C123.204 131.497 123.84 132.162 124.625 132.165H145.81C146.516 132.17 147.12 131.637 147.234 130.909Z" fill="#E4E1E8"/>
<rect x="129.572" y="113.194" width="11.3243" height="1.33206" rx="0.666029" fill="#070725"/>
<rect x="123.22" y="133.233" width="24.0316" height="20.1569" rx="3.89" fill="white"/>
<path fill-rule="evenodd" clip-rule="evenodd" d="M147.234 152.122H126.338C125.796 152.122 125.301 151.8 125.061 151.292C124.964 151.087 124.914 150.862 124.915 150.634V133.455C124.909 133.381 124.909 133.306 124.915 133.233H124.625C123.84 133.235 123.204 133.9 123.202 134.722V151.9C123.204 152.722 123.84 153.387 124.625 153.389H145.81C146.52 153.396 147.126 152.856 147.234 152.122Z" fill="#E4E1E8"/>
<rect x="129.572" y="134.419" width="11.3243" height="1.33206" rx="0.666029" fill="#070725"/>
<rect x="204.276" y="86.5416" width="4.17114" height="70.978" rx="0.46" fill="#AEABBA"/>
<rect x="206.189" y="86.5416" width="2.90516" height="70.978" rx="1.45258" fill="white"/>
<rect x="222.223" y="86.5416" width="4.17114" height="70.978" rx="0.46" fill="#AEABBA"/>
<rect x="224.133" y="86.5416" width="2.90516" height="70.978" rx="1.45258" fill="white"/>
<path fill-rule="evenodd" clip-rule="evenodd" d="M166.908 84.2105H229.412C229.757 84.2126 230.036 84.5044 230.038 84.8651V87.9273C230.036 88.2879 229.757 88.5797 229.412 88.5818H170.976C169.8 86.9527 168.433 85.4842 166.908 84.2105L166.908 84.2105Z" fill="#B56B41"/>
<path fill-rule="evenodd" clip-rule="evenodd" d="M189.607 65.221L190.394 66.5952C190.394 66.5952 190.698 68.2641 190.244 69.4048C189.79 70.5454 195.451 71.7818 195.451 71.7818L199.841 68.0765L200.811 66.8095C200.811 66.8095 198.751 64.467 198.616 63.4526C198.48 62.4383 189.607 65.221 189.607 65.221Z" fill="#AD7454"/>
<path fill-rule="evenodd" clip-rule="evenodd" d="M179.827 78.3502C179.827 78.3502 176.86 80.8536 175.832 81.0296C174.804 81.2057 170.292 79.0354 169.385 78.7828C168.477 78.5301 166.458 78.5301 165.023 78.5301C163.589 78.5301 162.096 79.1005 161.328 80.7464H164.357C165.173 80.7464 167.932 83.089 170.578 84.9914C173.223 86.8938 175.36 88.4746 177.12 88.2871C178.88 88.0995 184.931 83.3454 184.931 83.3454L179.827 78.3502Z" fill="#AD7454"/>
<path fill-rule="evenodd" clip-rule="evenodd" d="M170.592 85.0029C173.256 86.9167 175.374 88.4861 177.134 88.2986C178.894 88.111 184.946 83.3569 184.946 83.3569L179.824 78.3541C179.824 78.3541 179.136 78.9321 178.312 79.5522C180.467 83.1349 179.498 84.6852 176.966 85.7416C174.939 86.5914 169.78 83.6402 166.534 81.9943C167.705 82.8364 169.162 83.9809 170.592 85.0029Z" fill="#AD7454"/>
<path fill-rule="evenodd" clip-rule="evenodd" d="M204.034 107.59C204.034 107.59 188.715 107.445 186.838 107.613C184.961 107.782 183.116 109.868 183.431 113.091C183.746 116.314 188.034 141.416 188.034 141.416C188.222 141.555 188.433 141.655 188.656 141.711C188.989 141.784 191.73 142.255 191.73 142.255L191.916 139.927L190.314 115.51L204.444 112.831L204.034 107.59Z" fill="#070725"/>
<path fill-rule="evenodd" clip-rule="evenodd" d="M191.902 139.927C192.125 140.015 192.296 140.208 192.363 140.448C192.58 141.636 192.716 142.838 192.769 144.046C192.743 144.429 191.795 145.194 190.178 145.925C188.561 146.656 182.41 148.517 182.41 148.517L182.341 148.283C182.142 148.172 181.996 147.982 181.935 147.755C181.803 147.151 181.896 146.517 182.195 145.983C182.531 145.481 184.518 144.069 184.88 143.751C185.242 143.433 187.043 140.827 187.189 140.651C187.825 140.115 188.714 140.055 189.41 140.501C190.533 141.164 191.806 140.93 191.902 139.927Z" fill="#D64C47"/>
<path fill-rule="evenodd" clip-rule="evenodd" d="M182.341 148.291C182.341 148.291 188.48 145.933 189.827 145.439C190.879 144.972 191.864 144.355 192.754 143.606C192.875 143.663 192.969 143.767 193.017 143.897C193.065 144.084 193.098 144.743 193.116 144.88C193.121 145.354 192.84 145.779 192.414 145.941C191.741 146.243 183.164 149.386 182.773 149.539C182.381 149.692 182.224 148.589 182.224 148.589C182.224 148.589 182.213 148.356 182.341 148.291Z" fill="white"/>
<path fill-rule="evenodd" clip-rule="evenodd" d="M213.522 97.6421C213.522 97.6421 172.575 102.588 170.347 103.097C168.119 103.606 166.231 106.392 167.076 110.193C167.921 113.994 177.09 144.517 177.09 144.517C177.335 144.652 177.602 144.738 177.877 144.769C178.287 144.8 181.631 144.926 181.631 144.926L182.948 143.518L175.63 116.272L205.546 114.687C213.928 113.275 215.066 102.584 213.522 97.6421Z" fill="#181D3B"/>
<path fill-rule="evenodd" clip-rule="evenodd" d="M184.715 100.907C184.715 100.907 187.986 103.441 189.955 102.618C191.923 101.795 201.371 84.7196 201.371 84.7196L196.83 67.6134C194.6 67.7478 192.383 68.0652 190.2 68.5627L189.52 69.2134C189.52 69.2134 186.856 69.688 185.341 71.4603C183.826 73.2325 178.861 77.8603 178.678 78.2392C178.495 78.6182 183.007 83.8124 184.167 84.6392C184.466 84.7459 184.796 84.6869 185.045 84.4823L185.59 84.023C185.59 84.023 186.801 90.622 186.801 92.5742V94.5455C186.801 94.5455 186.164 99.5904 185.681 100.065C185.198 100.54 184.715 100.907 184.715 100.907Z" fill="#D64C47"/>
<path fill-rule="evenodd" clip-rule="evenodd" d="M199.333 104.157C200.091 104.157 200.707 103.513 200.707 102.72C200.707 101.926 200.091 101.282 199.333 101.282H187.222C184.411 101.262 181.985 99.2169 181.368 96.3483C180.504 96.7191 179.663 97.146 178.85 97.6268C179.968 101.498 183.374 104.149 187.24 104.157H199.333Z" fill="white"/>
<rect x="199.41" y="115.541" width="3.47961" height="29.9522" fill="#070725"/>
<rect x="194.792" y="105.481" width="3.39179" height="8.10718" fill="#00000F"/>
<rect x="218.227" y="105.481" width="3.39179" height="8.10718" fill="#00000F"/>
<path d="M199.41 114.833H202.889C203.998 114.837 204.896 115.777 204.898 116.938V120.831C204.898 121.993 203.997 122.936 202.886 122.936H199.41C198.296 122.936 197.394 121.992 197.394 120.827V116.938C197.396 115.774 198.298 114.833 199.41 114.833V114.833Z" fill="#3B405F"/>
<rect x="196.062" y="114.201" width="10.1717" height="6.10526" rx="1.58" fill="#070725"/>
<path fill-rule="evenodd" clip-rule="evenodd" d="M174.441 111.881H202.662C203.731 111.881 204.598 112.788 204.598 113.906V116.203C204.598 117.323 203.73 118.232 202.659 118.232H174.445C173.374 118.232 172.506 117.323 172.506 116.203V113.906C172.508 112.789 173.373 111.883 174.441 111.881Z" fill="#3E8C96"/>
<rect x="193.032" y="111.881" width="32.0958" height="6.33493" rx="3.16746" fill="#68CAD7"/>
<path d="M199.41 143.541H202.889C203.998 143.545 204.896 144.486 204.898 145.646V149.539C204.898 150.701 203.997 151.644 202.886 151.644H199.41C198.298 151.644 197.397 150.701 197.397 149.539V145.646C197.399 144.484 198.299 143.543 199.41 143.541V143.541Z" fill="#3B405F"/>
<rect x="196.062" y="147.403" width="10.1717" height="8.81531" rx="2.28" fill="#070725"/>
<path fill-rule="evenodd" clip-rule="evenodd" d="M210.386 154.056C210.382 155.498 209.266 156.666 207.887 156.67H194.411C193.033 156.666 191.916 155.498 191.912 154.056C191.916 152.613 193.033 151.445 194.411 151.441H207.887C209.266 151.445 210.382 152.613 210.386 154.056Z" fill="#707386"/>
<path fill-rule="evenodd" clip-rule="evenodd" d="M223.492 156.67C223.488 158.112 222.372 159.28 220.993 159.284H186.75C185.371 159.28 184.255 158.112 184.251 156.67C184.255 155.228 185.371 154.06 186.75 154.055H220.997C222.374 154.062 223.488 155.229 223.492 156.67Z" fill="#101537"/>
<path fill-rule="evenodd" clip-rule="evenodd" d="M202.059 156.67C202.055 158.112 200.938 159.28 199.56 159.284H181.302C179.923 159.28 178.807 158.112 178.803 156.67C178.807 155.228 179.923 154.06 181.302 154.055H199.56C200.938 154.06 202.055 155.228 202.059 156.67Z" fill="#00000F"/>
<path fill-rule="evenodd" clip-rule="evenodd" d="M194.247 94.5454C195.006 94.5454 195.621 95.1889 195.621 95.9827C195.621 96.7765 195.006 97.4201 194.247 97.4201H182.136C178.819 97.4326 176.133 100.243 176.121 103.713V115.131C176.121 115.925 175.506 116.568 174.747 116.568C173.988 116.568 173.373 115.925 173.373 115.131V103.694C173.393 98.6425 177.308 94.5559 182.136 94.5454H194.247Z" fill="white"/>
<path fill-rule="evenodd" clip-rule="evenodd" d="M221.132 79.2344C221.108 70.55 214.385 63.5161 206.083 63.4909H204.086C195.784 63.5161 189.061 70.55 189.037 79.2344V102.649C189.043 104.881 190.771 106.688 192.904 106.695H217.261C219.395 106.688 221.123 104.881 221.129 102.649L221.132 79.2344Z" fill="#3E8C96"/>
<path fill-rule="evenodd" clip-rule="evenodd" d="M225.128 79.2344C225.104 70.55 218.38 63.5161 210.079 63.4909H208.081C199.78 63.5161 193.056 70.55 193.032 79.2344V102.649C193.038 104.881 194.766 106.688 196.9 106.695H221.257C223.39 106.688 225.118 104.881 225.124 102.649L225.128 79.2344Z" fill="#68CAD7"/>
<path fill-rule="evenodd" clip-rule="evenodd" d="M182.626 142.427C182.962 142.446 183.273 142.615 183.482 142.89C183.815 143.349 184.997 146.519 185.056 146.993C185.114 147.468 183.845 148.674 181.514 150.032C179.183 151.391 170.084 155.575 170.084 155.575L169.915 155.322C169.607 155.269 169.331 155.094 169.143 154.832C168.776 154.166 168.753 153.351 169.081 152.662C169.473 151.966 172.198 149.654 172.685 149.179C173.172 148.704 175.29 145.045 175.473 144.792C175.656 144.54 176.973 143.495 178.894 143.904C180.815 144.314 182.743 143.636 182.626 142.427Z" fill="#D64C47"/>
<path fill-rule="evenodd" clip-rule="evenodd" d="M169.919 155.322C169.919 155.322 178.869 150.588 180.833 149.581C182.798 148.574 184.917 146.488 184.917 146.488C184.917 146.488 185.283 146.542 185.403 146.744C185.559 147.112 185.695 147.488 185.813 147.87C185.872 148.031 185.963 148.773 184.994 149.344C184.024 149.914 171.489 156.375 170.914 156.662C170.34 156.949 169.816 155.721 169.816 155.721C169.816 155.721 169.718 155.445 169.919 155.322Z" fill="white"/>
<path fill-rule="evenodd" clip-rule="evenodd" d="M187.002 45.933L188.466 45.577C191.951 44.7351 195.432 46.9961 196.256 50.6373L197.884 57.91C198.689 61.5559 196.527 65.1971 193.047 66.0593L191.583 66.4153C188.098 67.2572 184.618 64.9961 183.793 61.355L182.169 54.0823C181.364 50.4376 183.523 46.7969 187.002 45.933Z" fill="#AD7454"/>
<path fill-rule="evenodd" clip-rule="evenodd" d="M196.431 51.4794L197.873 57.9177C198.678 61.5635 196.516 65.2048 193.036 66.0669L191.572 66.4229C190.184 66.7633 188.728 66.6125 187.43 65.9942C187.602 66.0708 188.835 66.5722 189.11 65.6114C189.406 64.5894 187.723 61.3129 187.723 61.3129C187.659 61.1787 187.67 61.0186 187.752 60.8956C188.449 59.6333 188.69 58.152 188.433 56.7196C188.012 54.5378 190.712 53.0143 190.712 53.0143L184.467 54.7827V56.111C184.021 55.2162 183.19 54.6017 182.235 54.4612L182.151 54.0784C181.782 52.4292 182.02 50.6955 182.817 49.221C184.902 49.5004 191.686 50.4038 196.431 51.4794Z" fill="#AD7454"/>
<path fill-rule="evenodd" clip-rule="evenodd" d="M184.895 58.1512C184.895 58.1512 184.328 58.0861 184.141 57.2517L183.892 56.1416C183.428 55.4011 183.103 54.5749 182.934 53.7072C182.934 53.7072 179.238 53.1675 178.521 49.5885C177.804 46.0096 180.987 42.2277 181.448 41.8526C181.909 41.4775 183.881 40.7655 186.347 41.9254C186.347 41.9254 186.768 42.1971 187.573 41.8565C188.378 41.5158 192.911 40.1761 195.103 40.0995C197.295 40.023 198.707 42.3962 199.735 45.2593C199.827 44.5693 200.319 44.0111 200.968 43.8584C202.066 43.6172 201.481 45.7722 200.683 46.5378C200.683 46.5378 202.567 47.5483 202.926 49.6574C203.284 51.7665 202.604 61.0565 200.921 62.9091C199.238 64.7617 194.993 65.5541 193.64 65.8871C192.286 66.2201 189.615 64.7388 188.517 60.8651C188.517 60.8651 189.051 58.9282 188.612 57.3321C188.173 55.7359 187.771 54.5646 187.2 54.3579C186.629 54.1512 185.22 55.6938 185.1 56.3866C185.048 56.9375 185.098 57.4935 185.246 58.0249C185.147 58.1096 185.023 58.1544 184.895 58.1512Z" fill="#101537"/>
<path fill-rule="evenodd" clip-rule="evenodd" d="M184.895 58.1511C184.895 58.1511 184.328 58.0861 184.141 57.2516L183.892 56.1416C183.428 55.3997 183.103 54.5723 182.934 53.7033C182.934 53.7033 179.238 53.1636 178.521 49.5846C177.804 46.0057 180.987 42.2239 181.448 41.8488C181.448 41.8488 177.965 45.8258 181.814 47.866C185.663 49.9062 191.327 51.2038 195.056 50.9588C198.784 50.7138 201.426 43.954 201.426 43.9464C201.854 44.3712 201.342 45.9177 200.694 46.5263C200.694 46.5263 202.578 47.5368 202.937 49.6459C203.295 51.755 202.615 61.0449 200.932 62.8976C199.249 64.7502 195.004 65.5425 193.651 65.8755C192.297 66.2086 189.626 64.7272 188.528 60.8535C188.528 60.8535 189.062 58.9167 188.623 57.3205C188.184 55.7244 187.782 54.5531 187.211 54.3464C186.64 54.1397 185.231 55.6822 185.111 56.3751C185.059 56.9259 185.109 57.482 185.257 58.0133C185.157 58.1048 185.028 58.154 184.895 58.1511Z" fill="#070725"/>
<path fill-rule="evenodd" clip-rule="evenodd" d="M236.083 117.512C236.083 117.356 236.003 117.212 235.874 117.134C235.745 117.056 235.586 117.056 235.457 117.134C235.328 117.212 235.248 117.356 235.248 117.512V118.538H234.264C234.034 118.538 233.847 118.733 233.847 118.974C233.847 119.215 234.034 119.41 234.264 119.41H235.248V120.436C235.248 120.592 235.328 120.736 235.457 120.814C235.586 120.892 235.745 120.892 235.874 120.814C236.003 120.736 236.083 120.592 236.083 120.436V119.426H237.063C237.294 119.426 237.48 119.23 237.48 118.989C237.48 118.748 237.294 118.553 237.063 118.553H236.083V117.512Z" fill="#9FB2D9"/>
<path fill-rule="evenodd" clip-rule="evenodd" d="M211.019 26.978C211.019 26.737 210.833 26.5416 210.602 26.5416C210.372 26.5416 210.185 26.737 210.185 26.978V28.0038H209.204C208.974 28.0038 208.787 28.1992 208.787 28.4402C208.787 28.6812 208.974 28.8766 209.204 28.8766H210.185V29.9024C210.185 30.1434 210.372 30.3388 210.602 30.3388C210.833 30.3388 211.019 30.1434 211.019 29.9024V28.8766H212C212.23 28.8766 212.417 28.6812 212.417 28.4402C212.417 28.1992 212.23 28.0038 212 28.0038H211.019V26.978Z" fill="#9FB2D9"/>
<path fill-rule="evenodd" clip-rule="evenodd" d="M163.728 10.6526C163.728 10.4116 163.541 10.2162 163.311 10.2162C163.081 10.2162 162.894 10.4116 162.894 10.6526V11.6784H161.913C161.683 11.6784 161.496 11.8738 161.496 12.1148C161.496 12.3558 161.683 12.5512 161.913 12.5512H162.894V13.577C162.894 13.818 163.081 14.0134 163.311 14.0134C163.541 14.0134 163.728 13.818 163.728 13.577V12.5512H164.712C164.943 12.5512 165.129 12.3558 165.129 12.1148C165.129 11.8738 164.943 11.6784 164.712 11.6784H163.728V10.6526Z" fill="#9FB2D9"/>
<path fill-rule="evenodd" clip-rule="evenodd" d="M46.9216 97.7225C46.9216 97.4815 46.7349 97.2861 46.5045 97.2861C46.2741 97.2861 46.0874 97.4815 46.0874 97.7225V98.756H45.1068C44.8764 98.756 44.6897 98.9514 44.6897 99.1924C44.6897 99.4333 44.8764 99.6287 45.1068 99.6287H46.102V100.67C46.102 100.911 46.2888 101.106 46.5191 101.106C46.7495 101.106 46.9363 100.911 46.9363 100.67V99.644H47.9168C48.1472 99.644 48.334 99.4487 48.334 99.2077C48.334 98.9667 48.1472 98.7713 47.9168 98.7713H46.9363L46.9216 97.7225Z" fill="#9FB2D9"/>
<path fill-rule="evenodd" clip-rule="evenodd" d="M87.5902 41.3397C87.5902 41.0987 87.4035 40.9033 87.1731 40.9033C86.9427 40.9033 86.756 41.0987 86.756 41.3397V42.3693H85.7754C85.545 42.3693 85.3583 42.5647 85.3583 42.8057C85.3583 43.0467 85.545 43.2421 85.7754 43.2421H86.756V44.2679C86.756 44.5089 86.9427 44.7043 87.1731 44.7043C87.4035 44.7043 87.5902 44.5089 87.5902 44.2679V43.2421H88.5708C88.8011 43.2421 88.9879 43.0467 88.9879 42.8057C88.9879 42.5647 88.8011 42.3693 88.5708 42.3693H87.5902V41.3397Z" fill="#9FB2D9"/>
<path fill-rule="evenodd" clip-rule="evenodd" d="M39.827 139.28C39.827 139.039 39.6403 138.844 39.4099 138.844C39.1795 138.844 38.9928 139.039 38.9928 139.28V140.306H38.0122C37.7818 140.306 37.5951 140.502 37.5951 140.743C37.5951 140.984 37.7818 141.179 38.0122 141.179H38.9928V142.205C38.9928 142.446 39.1795 142.641 39.4099 142.641C39.6403 142.641 39.827 142.446 39.827 142.205V141.179H40.8076C40.9566 141.179 41.0943 141.096 41.1688 140.961C41.2433 140.826 41.2433 140.659 41.1688 140.524C41.0943 140.389 40.9566 140.306 40.8076 140.306H39.827V139.28Z" fill="#9FB2D9"/>
<path fill-rule="evenodd" clip-rule="evenodd" d="M2.46605 107.617C2.46605 107.376 2.2793 107.181 2.04894 107.181C1.81857 107.181 1.63182 107.376 1.63182 107.617V108.643H0.647582C0.417217 108.643 0.230469 108.838 0.230469 109.079C0.230469 109.32 0.417217 109.516 0.647582 109.516H1.62817V110.542C1.62817 110.783 1.81491 110.978 2.04528 110.978C2.27564 110.978 2.46239 110.783 2.46239 110.542V109.516H3.44298C3.67334 109.516 3.86009 109.32 3.86009 109.079C3.86009 108.838 3.67334 108.643 3.44298 108.643H2.46605V107.617Z" fill="#9FB2D9"/>
<path fill-rule="evenodd" clip-rule="evenodd" d="M103.719 105.956C109.639 102.664 111.139 109.826 108.841 115.755C106.543 121.684 94.7287 141.627 94.1103 149.539C93.8725 152.601 93.3237 152.268 92.859 150.121C90.5246 139.399 95.5702 110.484 103.719 105.956Z" fill="#29636B"/>
<path fill-rule="evenodd" clip-rule="evenodd" d="M91.1832 78.7866C84.3959 72.3942 80.1516 81.3435 81.3261 89.9751C82.5006 98.6067 91.8381 129.045 90.144 139.713C89.4928 143.847 90.3197 143.594 91.6076 140.915C98.0802 127.544 100.528 87.5866 91.1832 78.7866Z" fill="#238AD8"/>
<path fill-rule="evenodd" clip-rule="evenodd" d="M90.0087 142.679C90.1551 143.062 90.477 142.878 90.9088 142.22C97.9814 117.569 86.9645 80.7387 86.9279 80.6201C86.8683 80.4171 86.6627 80.3031 86.4687 80.3655C86.2747 80.4279 86.1658 80.6429 86.2254 80.8459C86.251 80.9646 97.4216 118.297 90.0087 142.679Z" fill="#1C517A"/>
<path fill-rule="evenodd" clip-rule="evenodd" d="M76.3574 99.2651C69.7714 96.2679 68.7469 104.042 71.6776 110.166C74.6084 116.291 88.7903 136.54 90.0782 144.922C90.5758 148.172 91.132 147.766 91.4613 145.435C93.0968 133.791 85.4131 103.388 76.3574 99.2651Z" fill="#68CAD7"/>
<path fill-rule="evenodd" clip-rule="evenodd" d="M90.6783 147.169C90.8795 147.426 91.0734 147.196 91.2381 146.591C90.6417 126.388 73.6754 101.807 73.6168 101.742C73.5199 101.619 73.3489 101.596 73.2255 101.689C73.1021 101.782 73.0684 101.959 73.1485 102.094C73.2034 102.174 90.4075 127.081 90.6783 147.169Z" fill="#34808A"/>
<path fill-rule="evenodd" clip-rule="evenodd" d="M85.6181 142.695H98.2559L101.553 145.81L98.8596 156.67H91.937H85.0144L82.3214 145.81L85.6181 142.695Z" fill="#3B405F"/>
<rect x="81.2749" y="138.653" width="21.324" height="7.15407" rx="2.86" fill="#3B405F"/>
<path fill-rule="evenodd" clip-rule="evenodd" d="M101.553 145.811L101 148.042H82.8739L82.3214 145.811H101.553Z" fill="#101537"/>
</svg>
